<svg width="1176" height="1085" viewBox="0 0 1176 1085" fill="none" xmlns="http://www.w3.org/2000/svg">
<path fill-rule="evenodd" clip-rule="evenodd" d="M973.02 1.5452C912.115 9.77684 856.122 33.6893 806.531 72.6406C786.431 88.4296 712.484 161.005 657.934 218.483L625.446 252.715L615.172 250.126C602.059 246.824 582.787 246.798 576.306 250.08C573.543 251.477 531.169 292.642 482.144 341.555L393.006 430.488L370.875 429.673L348.744 428.861L283.484 494.155C221.05 556.622 218.225 559.826 218.225 568.138C218.225 579.978 226.344 588.125 238.146 588.125C246.362 588.125 249.667 585.239 306.959 528.068L367.139 468.01L380.415 470.767C424.788 479.983 474.938 513.133 528.731 568.805C558.085 599.182 576.439 622.395 590.72 647.203C601.047 665.139 612.419 694.31 614.785 708.941L616.276 718.146L453.127 881.304L289.977 1044.46L279.464 1043.02C253.034 1039.4 211.307 1017.4 172.376 986.575C146.928 966.423 102.919 920.216 84.2729 894.067C59.9062 859.897 41.2413 819.133 41.1493 799.885C41.1286 795.437 58.6595 776.601 120.473 714.662C195.17 639.811 199.825 634.665 199.825 626.908C199.825 615.648 190.744 606.535 179.52 606.535C171.845 606.535 166.302 611.561 88.8085 688.805C43.4148 734.055 4.66367 774.131 2.69943 777.866C-0.0192274 783.03 -0.545938 788.574 0.502883 800.99C5.03857 854.655 45.018 921.617 110.482 985.185C138.713 1012.6 150.806 1022.67 176.445 1040.09C224.058 1072.46 279.402 1091.18 303.734 1083.14C309.309 1081.3 359.165 1032.83 483.579 908.272L655.71 735.949L654.896 713.919L654.084 691.889L686.676 658.992C706.332 639.153 719.895 623.583 720.85 619.767C724.38 605.665 715.171 594.129 700.713 594.538C694.751 594.708 688.897 599.339 666.076 621.926C650.972 636.877 638.161 647.914 637.606 646.455C630.605 628.024 589.351 573.097 558.632 541.308C520.734 502.089 489.03 476.723 452.255 456.191C443.715 451.422 436.73 446.79 436.73 445.897C436.73 445.002 472.321 408.672 515.824 365.159C606.772 274.193 594.683 281.255 630.12 298.381C698.537 331.448 770.193 406.98 791.254 468.233C798.552 489.458 798.492 489.591 767.476 520.697C741.817 546.432 739.416 549.562 739.416 557.276C739.416 568.214 748.464 576.618 760.247 576.618C767.614 576.618 771.396 573.675 799.435 546.126C816.504 529.357 831.926 512.839 833.704 509.421C837.478 502.168 837.814 485.41 834.477 470.916L832.126 460.717L998.624 293.719C1183.53 108.253 1175.76 117.329 1176 86.4482C1176.15 66.7493 1171.45 53.876 1158.91 39.5829C1146.45 25.3886 1115.99 12.9572 1073.67 4.8015C1049.88 0.212767 995.804 -1.53389 973.02 1.5452ZM962.513 43.9806C936.628 48.857 906.493 59.4543 880.894 72.6866C859.966 83.5026 831.997 102.523 830.5 106.955C829.543 109.785 850.924 121.444 870.596 128.821C890.31 136.213 895.43 141.191 895.106 152.651C894.818 162.797 886.071 171.595 876.271 171.595C863.818 171.595 828.269 156.614 806.464 142.178L797.531 136.261L731.094 202.704L664.66 269.146L682.66 280.926C692.559 287.406 707.259 298.004 715.323 304.477C743.517 327.11 790.808 379.038 808.737 407.054C812.125 412.349 815.239 417.152 815.658 417.732C816.078 418.309 872.747 362.432 941.59 293.562C1010.43 224.692 1066.51 168.09 1066.2 167.782C1065.89 167.471 1053.25 169.736 1038.11 172.812C1001.7 180.211 959.514 183.9 949.849 180.529C940.959 177.427 934.986 166.912 936.974 157.859C939.49 146.394 945.187 143.533 969.717 141.409C999.309 138.848 1030.82 133.419 1057.74 126.244C1079.65 120.406 1127.56 104.097 1133.21 100.553C1137.43 97.9016 1137.19 81.7306 1132.8 73.2274C1128.05 64.0522 1111.8 56.0691 1081.89 48.2195C1062.42 43.1107 1052.89 42.059 1019.79 41.3709C991.82 40.7887 975.515 41.532 962.513 43.9806Z" fill="#F5EEEE"/>
</svg>
