<svg width="1080" height="1080" viewBox="0 0 1080 1080" fill="none" xmlns="http://www.w3.org/2000/svg">
<path fill-rule="evenodd" clip-rule="evenodd" d="M504.404 1.5781C466.467 7.07697 419.646 25.1673 390.342 45.645C360.223 66.6927 328.377 102.996 314.226 132.411C296.512 169.236 291.826 194.877 291.826 254.971V301.021L221.223 301.662L150.62 302.302L137.478 308.236C121.908 315.265 109.615 327.662 104.865 341.123C102.975 346.474 78.0586 498.562 49.4914 679.096C-5.46181 1026.39 -4.43089 1018.12 4.81063 1037.35C10.9732 1050.17 28.6182 1066.53 43.5676 1073.28L56.4828 1079.11L149.614 1079.73C241.453 1080.33 242.833 1080.28 248.918 1075.88C256.949 1070.07 257.342 1059.63 249.777 1053.09C244.512 1048.55 243.625 1048.5 156.213 1048.46C58.0602 1048.4 56.2854 1048.17 43.2462 1033.93C29.5917 1019.01 26.8847 1042.42 83.9342 682.032C120.962 448.124 137.14 351.201 139.879 346.869C141.999 343.517 147.332 339.006 151.731 336.842C159.005 333.269 165.744 332.91 225.778 332.91H291.826V375.128V417.345H281.602C268.765 417.345 260.915 420.567 257.638 427.176C254.272 433.969 254.235 528.416 257.59 545.109C260.853 561.333 268.413 574.75 280.617 585.967C328.119 629.642 407.897 606.289 420.199 545.109C423.554 528.416 423.517 433.969 420.151 427.176C416.875 420.567 409.025 417.345 396.188 417.345H385.963V375.128V332.91H539.797H693.632V375.128V417.345H683.407C670.57 417.345 662.72 420.567 659.444 427.176C656.078 433.969 656.041 528.416 659.395 545.109C662.658 561.333 670.219 574.75 682.422 585.967C729.904 629.623 809.707 606.262 822.005 545.109C825.233 529.043 825.307 436.975 822.095 428.506C819.183 420.824 811.668 417.345 797.993 417.345H787.769V375.128V332.91H853.433C926.233 332.91 930.561 333.587 939.08 346.327C942.531 351.492 947.942 381.051 963.477 479.617C975.219 554.116 984.764 608.212 986.658 610.986C993.197 620.565 1010.17 619.117 1015.42 608.533C1017.49 604.351 1014.12 578.881 998.028 477.098C987.048 407.663 976.96 347.382 975.609 343.139C971.44 330.047 957.815 315.71 942.857 308.673L929.317 302.302L858.542 301.662L787.769 301.021V254.971C787.769 191.744 782.463 165.043 762.51 127.871C745.32 95.8441 719.235 66.5724 689.253 45.6683C667.236 30.3179 627.811 12.9305 600.642 6.58935C574.812 0.562759 528.166 -1.86688 504.404 1.5781ZM497.066 35.3946C424.61 49.3919 366.688 94.6388 340.045 158.058C327.348 188.276 326.267 200.54 326.267 314.188V417.345H338.895H351.523L351.541 316.55C351.557 210.734 352.402 199.111 362.03 172.197C368.477 154.181 373.622 148.559 383.667 148.559C398.364 148.559 403.709 161.121 396.116 177.825C388.73 194.081 385.963 216.256 385.963 259.214V301.246H539.797H693.632V258.94C693.632 207.322 690.789 191.955 676.147 164.385C661.324 136.47 638.198 115.258 608.203 102.063C580.772 89.9948 566.907 87.0248 538.649 87.1641C503.066 87.3372 474.094 96.7011 443.708 117.85C427.076 129.426 420.457 130.505 412.264 122.971C403.266 114.701 404.805 107.792 418.181 96.4267C453.033 66.8152 511.428 50.3755 560.994 56.2185C605.299 61.4429 639.296 76.5231 670.825 104.934C701.144 132.255 718.858 163.749 725.696 202.486C727.05 210.168 728.044 258.197 728.054 316.55L728.072 417.345H740.831H753.588L752.78 305.996C751.994 197.635 751.831 194.195 746.746 177.823C735.67 142.161 717.487 113.757 689.239 87.9874C638.885 42.0502 565.942 22.0875 497.066 35.3946ZM289.53 491.898C289.53 543.551 291.47 551.934 306.348 564.542C326.175 581.343 354.356 580.865 372.89 563.417C386.328 550.764 388.259 541.782 388.259 491.946V449.009H338.895H289.53V491.898ZM691.336 491.898C691.336 543.551 693.276 551.934 708.154 564.542C728.837 582.069 757.654 580.903 775.942 561.802C788.295 548.9 790.065 539.908 790.065 490.068V449.009H740.7H691.336V491.898ZM998.795 653.497C995.018 656.307 993.551 659.509 993.714 664.579C993.84 668.499 1006.05 748.078 1020.84 841.417C1050.3 1027.27 1049.67 1019.38 1036.35 1033.93C1032.96 1037.63 1026.01 1042.4 1020.91 1044.53C1012.04 1048.24 996.113 1048.41 657.657 1048.46C462.97 1048.48 302.009 1049.09 299.965 1049.81C297.92 1050.53 294.717 1053.85 292.845 1057.17C289.861 1062.48 289.851 1064.12 292.779 1070.56C294.827 1075.07 298.17 1078.36 301.433 1079.09C304.358 1079.75 467.932 1080.02 664.931 1079.7L1023.11 1079.11L1033.94 1074.51C1048.77 1068.21 1066.66 1052.29 1073.54 1039.27C1084.1 1019.28 1084.05 1018.7 1055.43 838.468C1040.86 746.75 1028.35 668.567 1027.62 664.729C1024.98 650.784 1010.18 645.018 998.795 653.497Z" fill="#F5EEEE"/>
</svg>
