<svg width="1334" height="1147" viewBox="0 0 1334 1147" fill="none" xmlns="http://www.w3.org/2000/svg">
<path fill-rule="evenodd" clip-rule="evenodd" d="M208.483 5.16907C202.161 11.493 201.264 15.7003 199.591 46.942C194.366 144.462 134.532 200.739 36.0738 200.739C14.7617 200.739 12.1713 201.297 6.33385 207.139C-1.97155 215.444 -2.1253 227.589 5.96901 235.685C11.3583 241.076 15.4158 241.923 44.0456 243.633C107.653 247.431 143.181 264.557 170.542 304.612C189.436 332.272 200.535 370.638 200.579 408.457C200.592 417.325 201.765 427.64 203.185 431.383C206.641 440.473 219.89 446.043 229.813 442.584C240.41 438.888 244.902 428.304 244.902 407.031C244.902 383.719 250.484 354.721 259.017 333.719C267.692 312.362 267.663 304.284 258.884 297.379C246.826 287.89 236.605 290.619 229.102 305.329C226.267 310.889 223.449 315.435 222.84 315.435C222.23 315.435 217.294 306.932 211.871 296.537C199.69 273.196 169.296 241.952 147.541 230.406L132.27 222.302L147.171 213.775C175.311 197.671 208.996 160.168 219.03 133.777C221.531 127.193 222.04 127.693 233.913 148.331C248.66 173.971 272.927 199.037 296.155 212.626L313.084 222.529L305.703 226.251C295.543 231.376 291.811 236.801 291.811 246.451C291.811 255.879 298.37 263.056 307.642 263.773C311.119 264.041 323.93 260.397 336.113 255.673C354.887 248.395 363.628 246.696 393.446 244.511C412.795 243.093 431.29 240.891 434.543 239.616C445.504 235.32 447.998 219.049 439.484 207.405C436.297 203.046 431.1 202.066 402.233 200.39C346.144 197.129 319.664 187.223 291.159 158.839C262.42 130.224 248.725 95.5158 245.22 42.4245C243.521 16.7065 242.536 12.3428 237.126 6.58192C229.451 -1.59019 215.908 -2.25751 208.483 5.16907ZM824.625 61.1617C818.704 67.0816 818.228 69.4641 818.22 93.0942C818.199 147.744 808.145 216.34 793.233 263.559C756.504 379.861 677.554 463.349 570.655 498.931C522.538 514.947 495.623 519.125 427.324 521.185C387.908 522.373 364.013 524.149 360.279 526.169C347.071 533.309 345.135 551.644 356.396 562.911L363.648 570.163L423.501 571.586C488 573.116 513.19 576.437 555.074 588.931C600.051 602.348 630.656 617.451 667.628 644.475C687.851 659.258 698.893 661.341 706.596 651.824C712.634 644.363 712.736 632.995 706.82 626.15C690.04 606.727 622.257 569.532 577.295 555.07L551.36 546.728L579.967 537.156C707.273 494.552 791.969 403.301 833.637 263.851C837.796 249.928 841.744 240.296 842.406 242.447C873.069 341.756 897.219 387.577 945.923 438.846C990.413 485.681 1037.32 515.043 1102.51 536.859L1131.18 546.454L1101.75 556.157C1042.48 575.692 995.562 604.433 952.328 647.682C901.725 698.302 869.746 754.727 846.633 834.175C841.757 850.931 840.663 852.795 838.979 847.209C821.081 787.835 802.578 744.566 780.349 710.1C766.639 688.839 764.231 686.981 751.774 688.042C745.355 688.587 734.835 699.858 734.835 706.187C734.835 708.752 739.562 718.165 745.34 727.109C789.593 795.593 812.838 878.393 817.115 982.759C818.658 1020.42 819.515 1026.47 824.01 1031.41C830.807 1038.88 840.746 1041.13 850.024 1037.28C862.23 1032.23 865.133 1023.16 865.157 990.058C865.232 885.564 894.467 785.536 945.923 713.695C991.361 650.255 1070.17 600.117 1152.22 582.44C1189.39 574.435 1203.23 573.035 1262.13 571.323L1321.65 569.592L1327.93 562.277C1335.12 553.912 1335.9 545.206 1330.39 534.555C1324.65 523.447 1314.67 521.372 1266.73 521.315C1140.9 521.169 1049.95 487.941 978.446 415.988C906.718 343.812 865.136 228.324 865.136 101.277C865.136 62.3191 861.06 54.7622 840.048 54.7622C833.939 54.7622 828.954 56.8293 824.625 61.1617ZM432.726 710.707C428.768 715.738 427.324 721.358 427.324 731.712C427.324 739.488 426.055 754.287 424.507 764.596C415.284 825.951 389.909 864.869 345.234 886.193C318.887 898.767 308.338 901.168 269.66 903.387C243.297 904.898 237.467 906.022 232.524 910.537C224.601 917.773 224.661 931.469 232.654 939.464C238.075 944.886 241.767 945.603 271.093 946.929C368.756 951.35 420.147 1004.54 426.503 1107.78C427.962 1131.45 428.971 1135.83 434.149 1141.01C441.832 1148.7 455.925 1149.04 462.56 1141.71C466.162 1137.73 468.16 1128.36 470.719 1103.49C476.281 1049.43 489.379 1015.28 514.243 990.008C542.033 961.762 574.054 949.307 624.868 946.969C663.096 945.212 669.684 942.029 669.684 925.322C669.684 908.504 664.261 905.636 628.569 903.6C595.994 901.744 570.189 896.513 554.472 888.583C541.687 882.131 528.461 882.264 522.452 888.909C513.482 898.822 518.876 917.473 531.909 921.61C539.151 923.909 537.879 926.526 527.004 931.709C500.439 944.364 471.353 974.266 456.556 1004.13L448.675 1020.03L442.895 1008.56C426.925 976.889 399.718 947.691 373.306 933.888C365.757 929.941 359.578 926.052 359.573 925.241C359.57 924.433 363.38 921.941 368.037 919.705C394.399 907.052 427.717 872.658 440.925 844.469C444.195 837.491 447.607 831.735 448.508 831.675C449.407 831.615 451.623 835.135 453.426 839.493C460.168 855.769 477.565 860.25 487.072 848.16C494.093 839.232 493.921 836.652 484.709 812.967C475.812 790.085 469.02 754.745 469.02 731.321C469.02 717.813 468.035 714.247 462.99 709.506C454.192 701.24 439.718 701.813 432.726 710.707Z" fill="#F5EEEE"/>
</svg>
