<svg width="816" height="1294" viewBox="0 0 816 1294" fill="none" xmlns="http://www.w3.org/2000/svg">
<path fill-rule="evenodd" clip-rule="evenodd" d="M521.832 3.08748C515.802 5.35363 510.275 7.22745 509.554 7.2494C506.371 7.34817 198.953 316.702 195.433 323.344C189.646 334.268 190.561 353.981 202.291 470.945L212.887 576.57L201.236 588.916C194.827 595.706 186.307 605.712 182.302 611.15C175.394 620.53 174.001 621.122 155.166 622.725C113.342 626.28 80.1397 642.267 48.56 674.058C33.0197 689.702 25.0124 700.539 17.6054 715.952C-18.4261 790.927 2.04588 876.835 68.0616 927.672C82.7412 938.978 83.7006 940.468 86.7078 956.66C90.2441 975.683 95.9761 983.983 105.582 983.983H112.01V1117.89C112.01 1220.8 112.802 1252.84 115.436 1256.28C121.964 1264.82 162.493 1294 167.831 1294C173.283 1294 195.131 1278.67 213.989 1261.63C223.043 1253.44 224.403 1250.63 224.403 1240.14C224.403 1229.41 225.779 1226.75 236.738 1216.24C251.358 1202.22 252.076 1196.1 240.637 1183.07C232.665 1173.98 232.44 1173.11 236.525 1167.27C243.337 1157.54 241.692 1150.53 229.885 1138.99L218.92 1128.28V1056.13V983.983H227.991C241.972 983.983 246.341 978.943 250.694 957.798C253.595 943.705 256.226 937.688 260.758 934.786C264.132 932.627 276.183 921.515 287.535 910.094C321.639 875.792 336.672 839.671 336.754 791.827C336.828 748.792 321.206 708.764 292.239 677.77L275.517 659.883L299.988 635.704L324.46 611.525L398.148 619.056C469.038 626.299 482.366 626.39 494.485 619.709C497.465 618.069 569.731 546.578 655.078 460.843C799.399 315.865 810.498 304.046 813.76 291.867C818.352 274.723 815.745 253.889 807.211 239.524C798.423 224.725 585.025 12.067 572.787 5.91056C559.78 -0.635471 535.341 -1.99077 521.832 3.08748ZM530.056 35.1647C527.041 36.8245 519.922 42.6188 514.234 48.0427L503.893 57.903L630.681 184.815L757.468 311.728L769.157 300.252C781.49 288.136 785.64 276.487 782.381 263.143C780.344 254.791 571.266 42.7834 558.291 35.9054C549.541 31.2689 537.704 30.9589 530.056 35.1647ZM352.547 209.636C226.396 335.912 224.403 338.076 224.375 348.869C224.342 361.215 240.376 531.766 242.536 542.06C243.819 548.164 246.338 546.301 273.609 519.094L303.283 489.486L296.811 479.938C287.532 466.254 285.898 453.864 291.452 439.307C299.637 417.852 321.461 406.766 342.865 413.183C356.445 417.254 391.89 449.976 400.114 466.034C409.673 484.698 404.982 505.818 388.485 518.38C371.722 531.149 354.038 531.42 336.033 519.192L326.494 512.715L296.74 542.584C280.374 559.015 267.581 572.565 268.31 572.696C288.453 576.384 473.69 593.122 476.601 591.52C478.863 590.274 537.767 532.073 607.498 462.188L734.282 335.119L607.487 208.242L480.691 81.3655L352.547 209.636ZM461.614 132.211C450.954 142.883 449.775 148.398 456.198 157.572C462.563 166.67 473.761 165.493 484.288 154.623C494.217 144.37 495.637 133.942 488.035 127.059C480.288 120.041 472.199 121.618 461.614 132.211ZM360.919 231.71C325.167 267.491 303.9 290.8 303.9 294.199C303.9 303.212 311.721 311.821 319.901 311.821C325.978 311.821 338.257 300.88 385.807 253.104C437.143 201.526 444.013 193.606 442.33 187.946C439.827 179.545 433.377 174.645 424.815 174.645C419.519 174.645 404.815 187.778 360.919 231.71ZM438.289 247.458C406.794 256.289 378.789 281.143 371.089 307.099C366.105 323.89 366.015 327.618 370.171 344.137C374.214 360.217 393.4 380.236 411.334 387.089C422.28 391.273 424.626 393.622 428.807 404.577C435.649 422.511 455.452 441.48 472.242 446.185C510.368 456.868 553.102 427.035 567.467 379.701C572.225 364.025 573.001 356.115 571.809 335.528C570.046 305.077 561.211 275.362 550.827 264.97C533.817 247.949 471.261 238.215 438.289 247.458ZM441.439 281.201C415.627 290.441 397.005 314.581 401.142 333.434C403.623 344.732 413.502 352.793 433.187 359.577L450.378 365.501L456.296 382.705C459.553 392.168 465.033 402.911 468.476 406.579C488.594 428.009 526.816 406.7 537.263 368.225C541.145 353.928 538.71 317.091 532.765 300.194C528.507 288.092 527.219 286.896 514.047 282.841C491.056 275.76 458.676 275.03 441.439 281.201ZM324.654 447.82C322.286 450.193 320.348 453.37 320.348 454.884C320.348 458.306 350.082 489.733 356.648 493.25C362.912 496.602 372.432 491.637 372.432 485.016C372.432 479.913 336.774 443.51 331.776 443.51C330.227 443.51 327.026 445.449 324.654 447.82ZM223.449 613.18C217.944 618.823 213.457 624.623 213.479 626.069C213.501 627.515 221.05 631.6 230.253 635.144L246.988 641.592L263.129 625.611C281.493 607.421 281.4 607.251 251.547 604.551L233.463 602.919L223.449 613.18ZM126.725 662.549C17.9508 700.174 -0.975017 844.659 94.8001 906.256C111.253 916.841 113.485 920.16 116.163 938.029L118.115 951.06H168.16H218.207L221.445 934.594C224.512 918.978 225.414 917.655 238.934 908.936C260.473 895.046 280.857 871.671 292.11 847.956C300.841 829.556 302.17 823.904 303.302 800.411C305.306 758.759 294.692 729.184 267.002 699.252C251.714 682.725 225.22 666.355 204.781 660.807L194.753 658.086L191.759 669.984C187.245 687.924 187.839 704.144 193.009 704.144C195.342 704.144 203.18 710.078 210.425 717.329C220.584 727.497 224.386 733.793 227.034 744.838C236.569 784.611 207.017 822.318 166.518 822.055C155.585 821.983 135.234 813.286 126.136 804.798C117.967 797.179 110.266 782.222 107.835 769.25C103.23 744.677 121.193 712.588 144.861 703.11C154.955 699.068 155.876 697.845 155.936 688.391C155.972 682.72 157.077 673.452 158.39 667.792L160.775 657.504L150.785 657.595C145.289 657.644 134.464 659.872 126.725 662.549ZM150.799 738.512C134.631 752.128 138.167 777.278 157.378 785.311C175.789 793.009 193.473 782.414 196.203 762.048C197.541 752.062 196.713 749.958 188.02 741.258C175.863 729.091 163.105 728.15 150.799 738.512ZM144.963 1112.24L145.023 1240.5L156.145 1248.38L167.269 1256.26L178.703 1247.99C189.158 1240.42 190.205 1238.55 190.951 1226.09C191.6 1215.23 193.388 1210.92 199.756 1204.81L207.747 1197.15L200.998 1189.12C193.092 1179.72 192.724 1175.97 198.593 1164.6C202.84 1156.39 202.744 1156 194.482 1147.46L186.025 1138.73V1061.36V983.983H165.465H144.905L144.963 1112.24Z" fill="#F5EEEE"/>
</svg>
