<svg width="870" height="1089" viewBox="0 0 870 1089" fill="none" xmlns="http://www.w3.org/2000/svg">
<path fill-rule="evenodd" clip-rule="evenodd" d="M523.115 3.12654C514.468 7.39523 387.732 134.911 382.608 144.5C379.104 151.058 378.547 157.989 377.958 202.486L377.286 253.025H223.489C128.35 253.025 65.3517 253.849 58.3083 255.185C34.7256 259.658 15.1932 274.254 4.95259 295.053C0.734251 303.62 -0.0187942 308.401 0.000351037 326.44C0.0194963 345.383 0.649163 348.913 5.73117 358.589C12.8958 372.223 29.9818 387.772 43.1134 392.605C48.6378 394.639 53.9177 396.952 54.8473 397.746C55.7769 398.539 68.4745 475.229 83.0674 568.163C97.6604 661.098 110.624 739.687 111.875 742.805C115.063 750.753 124.415 754.351 132.19 750.623C142.89 745.492 142.901 741.671 132.407 675.131C127.08 641.352 122.864 613.576 123.041 613.408C123.215 613.24 129.58 614.436 137.185 616.064C185.937 626.51 243.339 619.396 287.143 597.478C303.976 589.056 313.436 582.389 338.21 561.484C352.95 549.048 383.569 533.252 401.943 528.609C429.112 521.742 464.869 526.074 494.761 539.853C502.257 543.309 520.356 553.995 534.981 563.599C549.606 573.204 568.272 584.255 576.462 588.155C593.776 596.401 625.357 606.996 646.662 611.708C667.492 616.313 713.685 618.081 731.609 614.959C739.565 613.574 746.334 612.727 746.649 613.076C747.47 613.993 684.065 1016.5 681.655 1025.68C679.134 1035.28 671.878 1046.08 664.056 1051.88C658.051 1056.33 657.985 1056.33 435 1056.33C212.015 1056.33 211.949 1056.33 205.944 1051.88C198.135 1046.09 190.874 1035.29 188.328 1025.68C187.211 1021.47 179.115 972.309 170.334 916.433C161.555 860.555 153.348 812.927 152.097 810.593C147.474 801.949 131.294 802.447 125.421 811.412C122.351 816.098 123.355 824.357 139.318 925.756C154.039 1019.27 157.383 1036.89 162.478 1047.82C169.517 1062.91 182.47 1076.5 196.333 1083.33L206.32 1088.25L429.682 1088.86C585.212 1089.28 655.951 1088.77 662.616 1087.16C682.419 1082.37 701.319 1064.33 709.732 1042.18C712.417 1035.11 726.063 954.185 746.802 822.352C764.854 707.602 781.087 604.617 782.878 593.499C784.667 582.38 792.257 534.137 799.745 486.29C807.231 438.445 814.14 398.622 815.1 397.799C816.057 396.975 821.6 394.547 827.418 392.402C840.582 387.549 856.97 372.466 864.362 358.402C869.338 348.937 869.981 345.296 870 326.44C870.019 308.257 869.285 303.673 864.943 294.927C854.741 274.373 834.94 259.597 811.692 255.185C804.648 253.849 741.605 253.025 646.372 253.025H492.436V223.86V194.694L546.443 140.337C576.145 110.442 601.513 83.8889 602.815 81.3333C605.793 75.4835 605.846 65.6672 602.942 58.0257C599.994 50.2693 557.56 7.2867 548.697 3.08186C540.014 -1.04213 531.53 -1.02723 523.115 3.12654ZM472.727 97.2185L409.473 160.623V206.823V253.025H435H460.527V222.102C460.527 198.986 461.359 189.18 463.826 183.267C465.969 178.123 485.503 156.912 519.631 122.667L572.135 69.9806L554.058 51.8972L535.983 33.8138L472.727 97.2185ZM62.7309 286.907C52.4754 288.982 47.3891 292.048 39.7268 300.777C23.4895 319.277 29.7946 350.171 52.1329 361.57C60.3292 365.754 65.2113 365.807 435 365.807C804.789 365.807 809.671 365.754 817.867 361.57C846.704 346.853 846.24 305.614 817.059 289.624C810.928 286.264 784.244 285.987 440.318 285.704C236.74 285.536 66.8258 286.077 62.7309 286.907ZM90.3618 402.5C90.3256 410.079 116.395 575.232 117.903 576.977C120.813 580.346 153.918 587.215 173.395 588.492C198.72 590.151 223.2 586.853 248.821 578.328C272.348 570.5 286.507 562.531 306.08 546.092C326.676 528.798 342.939 517.973 361.771 509.025L377.639 501.488L377.071 450.14L376.501 398.791L233.443 398.244L90.3852 397.697L90.3618 402.5ZM409.473 445.476V493.227L434.121 493.887C447.678 494.251 459.166 494.149 459.648 493.661C460.131 493.174 460.527 471.39 460.527 445.25V397.727H435H409.473V445.476ZM492.436 450.66V503.595L510.905 512.46C521.062 517.335 540.446 528.66 553.982 537.627C591.783 562.669 630.307 577.684 670.527 583.046C691.551 585.849 726.285 584.527 742.305 580.314L752.858 577.539L766.151 493.485C773.463 447.255 779.483 406.796 779.53 403.578L779.615 397.727H636.025H492.436V450.66ZM396.709 623.29C387.182 632.821 393.999 650.954 407.11 650.954C416.604 650.954 423.087 644.478 423.087 634.994C423.087 620.945 406.44 613.557 396.709 623.29ZM533.917 636.375C531.577 637.65 513.606 654.616 493.982 674.082C441.235 726.402 441.235 725.964 494.223 778.972C546.855 831.619 546.764 831.619 598.245 780.367C617.429 761.271 634.494 743.062 636.17 739.902C639.795 733.063 640.156 718.495 636.861 711.992C633.494 705.348 569.083 640.625 562.21 636.977C555.464 633.4 539.991 633.07 533.917 636.375ZM516.889 695.651L487.156 725.451L517.45 755.756L547.744 786.06L578.039 755.756L608.333 725.451L578.6 695.651C562.246 679.26 548.361 665.849 547.744 665.849C547.127 665.849 533.243 679.26 516.889 695.651ZM300.983 724.834C289.005 729.16 286.133 745.214 295.952 752.94C303.208 758.65 307.909 758.509 315.046 752.368C319.116 748.867 320.837 745.352 320.837 740.547C320.837 730.369 309.815 721.646 300.983 724.834ZM393.519 820.952C386.499 824.41 365.53 836.214 346.923 847.181C308.263 869.967 304.378 874.247 305.814 892.477C306.508 901.265 310.281 909.413 327.499 939.292C351.884 981.602 356.511 988.203 364.805 992.493C378.768 999.715 386.499 997.392 428.312 973.401C449.67 961.144 469.889 949.164 473.244 946.774C480.955 941.279 487.088 925.839 485.235 916.576C483.991 910.356 457.219 861.785 440.048 834.592C428.001 815.519 413.291 811.206 393.519 820.952ZM373.707 868.876C354.62 879.858 338.51 889.338 337.908 889.942C337.083 890.768 375.09 959.018 378.892 963.54C380.27 965.178 452.016 922.853 451.929 920.453C451.805 917.036 412.619 850.252 410.303 849.511C409.262 849.177 392.793 857.891 373.707 868.876ZM580.023 924C570.595 934.042 576.745 950.996 589.815 950.996C602.727 950.996 610.096 939.158 604.24 927.829C599.013 917.717 587.618 915.916 580.023 924Z" fill="#F5EEEE"/>
</svg>
