<svg width="1664" height="961" viewBox="0 0 1664 961" fill="none" xmlns="http://www.w3.org/2000/svg">
<path fill-rule="evenodd" clip-rule="evenodd" d="M794.676 6.87361C744.667 30.0507 734.614 97.9012 775.632 135.406L786.17 145.042L702.002 265.059L617.83 385.072L608.42 378.915C594.745 369.965 524.818 320.345 521.381 317.151C519.777 315.659 523.374 307.421 529.375 298.842C555.936 260.889 547.764 212.28 510.438 186.187C499.164 178.305 491.85 176.268 471.305 175.289C439.113 173.757 419.379 183.124 402.659 207.868C383.718 235.899 383.676 267.965 402.534 295.979C409.681 306.595 416.046 311.923 438.384 325.983C443.211 329.021 436.562 341.678 393.249 411.928C365.312 457.239 339.786 498.387 336.524 503.366L330.597 512.422L240.876 489.441C191.529 476.802 150.407 465.708 149.489 464.793C148.575 463.874 149.685 459.034 151.962 454.038C157.942 440.896 157.056 407.669 150.368 394.36C123.331 340.567 55.1502 331.061 18.198 375.938C-21.0276 423.574 6.68218 494.095 67.6479 501.791L85.5317 504.049L138.778 651.844C186.271 783.671 191.383 800.024 186.082 803.201C153.15 822.941 139.692 839.163 134.252 865.688C127.482 898.684 140.037 928.147 169.796 949.084L185.168 959.899L811.389 960.818C1222.82 961.424 1442.17 960.512 1450.89 958.158C1497.8 945.515 1524.67 889.499 1504.81 845.737C1497.69 830.05 1472.13 805.947 1459.14 802.685C1454.69 801.563 1451.04 800.056 1451.04 799.33C1451.04 797.293 1551.16 518.433 1552.32 517.244C1552.89 516.667 1560.68 518.042 1569.65 520.303C1595.12 526.724 1618.63 519.623 1639.77 499.12C1667.12 472.596 1671.57 437.36 1651.84 403.652C1639.05 381.817 1619.05 369.488 1593.4 367.633C1568.36 365.82 1550.56 371.237 1534.13 385.674C1516.58 401.095 1507.96 419.931 1507.96 442.841V462.047L1409.42 487.375C1355.21 501.307 1310.64 512.361 1310.36 511.938C1301.4 498.38 1202.02 334.968 1202.02 333.793C1202.02 332.86 1205.99 331.1 1210.85 329.879C1223.98 326.578 1244.94 306.613 1252.3 290.402C1278.56 232.537 1224.76 166.888 1163.2 181.674C1141.73 186.828 1118.13 206.201 1109.11 226.066C1097.66 251.316 1102.25 288.511 1119.12 307.179C1122.29 310.691 1124 314.455 1122.91 315.548C1121.82 316.638 1099.59 332.635 1073.5 351.094C1036.21 377.48 1025.18 383.712 1021.86 380.247C1019.54 377.825 982.372 325.481 939.266 263.934L860.893 152.023L877.211 137.642C912.196 106.812 916.526 61.4474 887.809 26.5713C867.015 1.31793 825.573 -7.44649 794.676 6.87361ZM811.464 61.6148C801.667 72.0566 801.382 83.403 810.685 92.7159C830.927 112.98 864.105 87.495 847.175 64.6882C837.697 51.9244 821.838 50.5604 811.464 61.6148ZM734.831 313.493C688.216 380.044 645.977 437.723 640.965 441.669C624.501 454.636 616.667 451.488 551.411 405.696C517.191 381.678 488.588 363.911 486.919 365.631C485.269 367.33 458.793 409.585 428.085 459.533C397.372 509.48 368.14 554.755 363.117 560.14C357.474 566.194 350.285 569.934 344.287 569.934C338.95 569.934 294.111 559.567 244.64 546.892C195.168 534.221 154.022 524.527 153.2 525.35C152.378 526.172 159.223 547.497 168.408 572.744L185.111 618.646L324.161 621C400.638 622.292 496.45 623.354 537.077 623.354H610.946L618.318 632.738C627.51 644.437 627.702 655.694 618.894 666.585L612.095 674.993L409.329 676.774L206.563 678.554L227.976 738.207L249.389 797.859H821.176H1392.96L1414.32 738.207L1435.68 678.554L1235.34 676.774L1035 674.993L1027.2 667.18C1015.99 655.954 1016.82 638.685 1029.08 628.133L1038.77 619.792H1247.97H1457.18L1473.7 572.922C1482.79 547.145 1489.72 525.556 1489.11 524.944C1488.5 524.335 1447.68 534.207 1398.39 546.885C1349.1 559.56 1304.12 569.934 1298.45 569.934C1283.58 569.934 1275.55 559.314 1211.53 455.063C1180.56 404.635 1154.15 363.43 1152.83 363.494C1151.51 363.562 1123.22 382.775 1089.95 406.198C1056.69 429.618 1025.95 448.795 1021.64 448.813C1017.33 448.835 1009.95 447.093 1005.25 444.949C1000.11 442.606 962.034 391.447 909.916 316.869C862.188 248.574 822.336 192.647 821.358 192.593C820.379 192.54 781.442 246.943 734.831 313.493ZM452.166 233.591C442.197 240.579 441.415 259.981 450.764 268.45C465.734 282.011 490.505 271.637 490.505 251.804C490.505 232.21 468.822 221.91 452.166 233.591ZM1163.02 242.965C1153.83 252.844 1153.86 260.269 1163.14 272.082C1168.03 278.304 1173.94 281.466 1180.67 281.466C1191.86 281.466 1205.57 267.474 1205.57 256.056C1205.57 237.42 1176.5 228.474 1163.02 242.965ZM60.3016 411.936C56.246 417.096 52.9268 423.289 52.9268 425.7C52.9268 428.111 56.246 434.304 60.3016 439.465C73.8985 456.773 102.732 447.417 102.732 425.7C102.732 403.983 73.8985 394.627 60.3016 411.936ZM1568.44 427.481C1553.97 441.968 1563.66 466.698 1583.77 466.602C1597.12 466.538 1601.5 464.077 1607.04 453.532C1618.73 431.309 1586.41 409.496 1568.44 427.481ZM801.172 530.88C769.891 537.152 742.11 557.323 726.901 584.806C717.595 601.63 716.41 607.178 716.41 634.038C716.41 659.199 717.893 667.215 725.186 681.51C743.582 717.562 778.461 738.687 819.579 738.687C860.473 738.687 891.637 720.464 913.267 683.896C921.648 669.729 922.748 664.152 922.748 635.818C922.748 612.007 921.09 600.43 916.294 590.786C894.334 546.614 846.595 521.77 801.172 530.88ZM796.707 590.216C761.655 608.692 759.46 653.693 792.534 675.812C806.775 685.335 827.598 686.4 843.944 678.437C887.87 657.044 874.796 589.464 825.922 585.251C814.079 584.229 805.196 585.739 796.707 590.216ZM961.372 619.796C952.076 623.51 942.314 636.823 942.314 645.787C942.314 654.619 961.29 673.212 970.302 673.212C982.497 673.212 996.862 657.998 996.862 645.089C996.862 626.666 977.933 613.179 961.372 619.796ZM643.74 629.177C635.315 639.896 634.65 645.527 640.502 656.531C650.805 675.891 667.504 678.198 683.25 662.439C691.962 653.718 693.553 649.815 691.592 641.962C687.768 626.612 679.443 619.792 664.534 619.792C654.27 619.792 649.375 622.001 643.74 629.177ZM224.287 854.527C194.962 856.881 188.114 862.077 188.114 881.974C188.114 890.201 190.814 895.625 197.548 900.927L206.986 908.36L823.987 907.42L1440.99 906.479L1449.57 896.486C1460.87 883.334 1460.41 874.349 1447.76 861.689L1437.36 851.279L843.866 851.856C517.443 852.173 238.631 853.373 224.287 854.527Z" fill="#F5EEEE"/>
</svg>
