<svg width="1127" height="711" viewBox="0 0 1127 711" fill="none" xmlns="http://www.w3.org/2000/svg">
<path fill-rule="evenodd" clip-rule="evenodd" d="M367.782 3.09736C319.137 10.8459 277.71 28.4749 238.122 58.2723C215.557 75.2558 2.51009 289.294 0.67507 296.825C-0.133656 300.145 -0.230351 305.085 0.464098 307.804C2.13429 314.353 124.951 489.638 145.048 514.155C219.066 604.458 329.191 672.168 444.039 697.992C464.066 702.495 465.809 702.57 472.852 699.23C485.673 693.152 489.446 676.698 480.41 666.282C476.43 661.693 469.663 659.124 445.703 653.11C336.705 625.745 242.671 566.205 175.166 481.81C161.829 465.137 65.6083 328.25 65.6083 325.951C65.6083 325.178 111.84 324.899 168.347 325.332L271.086 326.118L293.062 332.066C323.717 340.359 358.242 358.098 389.461 381.591C448.691 426.163 507.304 445.604 573.259 442.554C633.962 439.748 681.932 421.722 734.785 381.859C766.301 358.089 800.623 340.414 831.48 332.066L853.456 326.118L956.195 325.332C1012.7 324.899 1058.93 325.178 1058.93 325.951C1058.93 328.25 962.714 465.137 949.376 481.81C918.816 520.017 875.189 559.559 833.678 586.671C809.045 602.761 754.427 629.768 728.192 638.834C717.314 642.593 695.063 649.024 678.745 653.125C645.594 661.456 639.188 665.707 639.188 679.375C639.188 688.157 647.517 699.138 655.745 701.2C662.793 702.967 708.062 691.969 742.228 680.189C756.264 675.35 782.583 664.117 800.714 655.224C859.293 626.494 904.329 593.627 950.479 545.924C982.211 513.127 988.511 504.814 1066.51 392.886C1110.14 330.27 1126.96 304.442 1127 299.989C1127.03 296.597 1126.14 294.388 1125.02 295.082C1123.9 295.773 1122.42 294.57 1121.73 292.405C1121.04 290.24 1068.81 237.057 1005.65 174.219C884.258 53.4419 877.362 47.4411 838.073 28.3959C755.412 -11.6751 657.721 -8.86684 579.303 35.8348L562.271 45.5418L545.24 35.8348C492.767 5.921 426.63 -6.28035 367.782 3.09736ZM374.693 46.0425C341.201 51.3099 305.672 65.2304 276.046 84.6906C264.535 92.2525 234.417 120.856 167.798 187.488L75.4976 279.809L243.616 280.478C451.137 281.302 470.698 279.908 536.594 259.567L562.564 251.553L580.547 257.332C605.281 265.278 629.839 271.29 655.752 275.738C674.946 279.036 700.495 279.6 862.935 280.318C1040.92 281.104 1048.14 280.981 1046.05 277.178C1044.86 275.003 1003.51 233.129 954.163 184.126C890.632 121.038 859.834 92.0132 848.646 84.6928C826.399 70.1356 799.808 58.1691 774.265 51.2242C754.636 45.8866 748.608 45.2652 716.105 45.2257C683.78 45.184 677.512 45.8053 658.358 50.952C633.657 57.5895 600.958 72.419 582.5 85.3537C565.689 97.1357 558.854 97.1357 542.042 85.3537C523.301 72.2192 490.624 57.4907 466.185 51.1606C442.105 44.9249 397.621 42.435 374.693 46.0425ZM0.189395 302.863C0.189395 307.09 0.642105 308.82 1.19371 306.706C1.74751 304.591 1.74751 301.135 1.19371 299.021C0.642105 296.906 0.189395 298.637 0.189395 302.863ZM547.987 302.047C520.024 312.434 463.235 322.014 417.208 324.106L386.448 325.503L393.597 330.373C397.529 333.049 409.879 342.1 421.043 350.483C494.908 405.959 584.672 414.625 666.577 374.192C675.172 369.948 691.562 359.448 703 350.858C714.439 342.269 727.014 333.049 730.945 330.373L738.094 325.503L707.334 324.106C660.92 321.996 606.707 312.781 575.044 301.621C564.111 297.767 559.307 297.842 547.987 302.047ZM547.767 674.81C539.337 683.232 538.231 690.623 543.954 700.302C552.479 714.718 573.578 714.525 581.116 699.961C586.948 688.691 583.395 675.875 572.941 670.473C563.071 665.375 555.988 666.596 547.767 674.81Z" fill="#F5EEEE"/>
</svg>
