<svg width="1344" height="1340" viewBox="0 0 1344 1340" fill="none" xmlns="http://www.w3.org/2000/svg">
<path fill-rule="evenodd" clip-rule="evenodd" d="M620.62 0.821588C460.397 14.8418 318.025 79.0324 205.533 187.968C151.376 240.413 109.761 295.676 76.7244 359.028C-70.1669 640.701 -1.5336 982.133 243.182 1187.11C310.377 1243.39 399.947 1290.51 485.633 1314.67C553.187 1333.71 597.926 1339.8 670.42 1339.83C736.899 1339.85 775.131 1335.29 834.409 1320.26C885.846 1307.21 916.651 1295.74 967.915 1270.54C1040.87 1234.68 1092.63 1196.86 1151.43 1136.46C1205.02 1081.41 1240.63 1030.71 1273.36 962.86C1309.73 887.472 1328.64 820.272 1339.11 729.224C1343.52 690.914 1344.92 636.002 1341.57 632.657C1340.05 631.132 1338.79 624.519 1338.79 617.958C1338.77 596.906 1328.79 537.323 1319.15 500.683C1306.45 452.397 1295.07 422.333 1270.76 372.755C1237.47 304.868 1196.83 247.786 1144.8 195.831C1041.96 93.1339 913.831 28.7284 768.711 6.77933C735.995 1.83333 649.043 -1.66583 620.62 0.821588ZM621.93 45.3173C617.605 45.9044 603.452 47.6763 590.477 49.2568C459.784 65.1563 333.251 126.299 235.644 220.721C131.72 321.253 67.9568 449.634 48.8255 596.858C44.6579 628.914 44.6579 711.584 48.8255 743.64C66.8167 882.096 124.153 1003.69 217.595 1101.56C405.908 1298.8 694.805 1351.62 941.704 1233.97C1174.19 1123.18 1317.27 873.032 1294.11 617.827C1286.87 538.038 1267.84 468.401 1234.31 398.966C1172.64 271.274 1071.83 170.073 944.325 107.872C884.915 78.8909 825.259 60.2863 759.538 50.2449C733.67 46.2949 639.547 42.9242 621.93 45.3173ZM498.621 118.391C485.308 131.701 495.085 154.942 513.996 154.942C531.154 154.942 541.043 138.358 533.075 122.949C526.331 109.904 509.352 107.657 498.621 118.391ZM419.511 145.915C347.877 179.879 274.606 236.809 223.183 298.463C184.889 344.374 134.669 431.279 134.669 451.634C134.669 467.413 150.044 477.053 165.199 470.776C171.398 468.21 175.335 462.407 185.303 441.139C236.462 331.981 324.208 242.953 433.911 188.906C464.337 173.913 468.657 169.974 468.512 157.343C468.418 148.908 464.565 142.987 456.319 138.594C447.549 133.923 442.815 134.864 419.511 145.915ZM615.378 249.624C567.965 256.195 530.192 267.463 487.017 287.91C442.847 308.829 411.383 331.423 372.701 370C321.165 421.397 290.252 470.802 268.321 536.83C226.677 662.21 245.255 799.144 318.845 909.196C379.563 999.998 472.607 1062.46 584.472 1087.51C608.169 1092.82 618.452 1093.56 669.11 1093.56C732.519 1093.56 754.786 1090.26 805.341 1073.36C894.781 1043.47 981.966 973.677 1032.23 891.731C1108.03 768.149 1114.94 610.491 1050.25 480.862C969.776 319.599 792.107 225.124 615.378 249.624ZM614.945 294.051C590.862 297.999 563.412 304.588 560.998 306.999C560.201 307.796 576.688 344.738 597.633 389.092L635.712 469.735H670.565H705.417L742.962 390.175C763.611 346.418 780.506 309.605 780.506 308.368C780.506 305.849 767.781 302.098 740.152 296.478C712.562 290.867 642.642 289.511 614.945 294.051ZM490.876 335.622C460.24 352.087 447.19 361.28 448.734 365.303C450.956 371.096 558.89 525.937 560.759 526.015C564.874 526.188 599.654 504.384 599.675 501.618C599.716 495.752 517.537 324.265 514.704 324.309C513.131 324.333 502.408 329.423 490.876 335.622ZM782.257 411.416C759.64 459.348 741.145 499.888 741.161 501.506C741.187 504.121 776.161 526.125 780.197 526.065C782.05 526.036 889.798 371.324 892.044 365.466C893.054 362.839 888.281 358.315 876.947 351.157C859.179 339.933 829.264 324.265 825.61 324.265C824.386 324.265 804.877 363.484 782.257 411.416ZM392.115 412.837C368.908 437.126 341.552 477.36 327.372 508.053C317.33 529.785 299.085 583.079 301.129 584.694C302.736 585.96 481.88 600.216 482.588 599.133C482.936 598.601 486.121 591.76 489.67 583.928C493.216 576.097 500.54 563.363 505.947 555.636L515.773 541.585L468.135 472.896C441.932 435.118 418.484 401.571 416.022 398.35L411.551 392.494L392.115 412.837ZM876.853 467.211L825.107 541.826L834.671 554.271C839.932 561.114 847.601 574.089 851.714 583.098C857.653 596.109 860.403 599.479 865.076 599.479C868.313 599.479 905.75 596.541 948.27 592.948C990.789 589.357 1028.82 586.408 1032.79 586.395C1042.16 586.369 1042.04 583.963 1030.99 550.958C1019.53 516.705 1000.18 478.167 980.996 451.388C965.367 429.57 933.337 392.345 930.328 392.505C929.377 392.555 905.312 426.173 876.853 467.211ZM654.141 517.164C644.175 529.494 636.946 534.702 600.726 555.644C571.364 572.618 558.785 578.511 551.905 578.511C543.117 578.511 542.162 579.425 533.46 596.203L524.284 613.895L530.514 625.447C536.139 635.879 536.745 640.227 536.745 670.27C536.745 700.331 536.139 704.682 530.472 715.34L524.198 727.14L532.981 743.579C545.305 766.645 547.932 768.991 561.656 769.198C580.496 769.484 633.56 800.522 640.658 815.413C644.563 823.601 646.078 824.427 660.059 826.01C679.513 828.212 686.538 826.327 691.573 817.56C697.494 807.246 776.947 761.987 789.13 761.987C797.698 761.987 798.741 760.965 807.818 743.689L817.435 725.394L811.42 717.261C805.792 709.649 805.407 706.659 805.407 670.684C805.407 635.747 805.928 631.407 811.118 623.061L816.83 613.88L810.932 601.644C807.687 594.916 801.816 585.189 797.879 580.028C791.46 571.615 789.455 570.647 778.404 570.647C767.928 570.647 761.739 568.073 737.015 553.429C715.653 540.78 706.269 533.554 701.632 526.186C696.299 517.714 693.538 515.914 683.814 514.572C665.396 512.029 657.753 512.695 654.141 517.164ZM638.758 587.139C619.411 595.275 606.814 605.186 597.011 619.989C566.45 666.129 583.523 727.761 633.337 751.115C645.711 756.915 651.798 758.056 670.42 758.056C689.043 758.056 695.13 756.915 707.504 751.115C726.355 742.277 742.448 726.183 751.286 707.332C757.181 694.756 758.227 688.977 758.227 668.938C758.227 647.071 757.574 644.145 749.294 628.875C744.38 619.814 736.178 608.727 731.067 604.239C706.212 582.416 667.183 575.187 638.758 587.139ZM650.762 630.919C624.866 643.826 618.19 676.689 637.091 698.216C657.934 721.955 692.902 719.253 708.463 692.701C730.923 654.376 690.514 611.107 650.762 630.919ZM291.539 648.507C289.741 667.686 291.528 706.365 294.343 709.177C295.709 710.543 467.857 697.377 483.668 694.698L492.186 693.254V670.076V646.898L483.668 645.516C478.984 644.759 437.405 641.155 391.274 637.509C345.143 633.863 304.251 630.351 300.403 629.703C293.46 628.537 293.397 628.673 291.539 648.507ZM948.256 637.902C894.196 642.497 849.669 646.347 849.31 646.457C848.951 646.567 848.655 657.143 848.655 669.958V693.254L857.173 694.678C876.737 697.943 1045.29 710.386 1046.99 708.69C1049.79 705.888 1051.19 649.264 1048.72 638.756L1046.55 629.546L948.256 637.902ZM0.447942 670.249C0.447942 689.711 0.859454 697.671 1.36532 687.941C1.86857 678.212 1.86857 662.289 1.36532 652.557C0.859454 642.824 0.447942 650.787 0.447942 670.249ZM387.342 747.697C350.582 751.005 316.083 753.804 310.675 753.919C304.062 754.056 300.846 755.332 300.846 757.82C300.846 765.484 317.262 811.327 328.507 835.063C344.425 868.663 366.198 900.347 391.274 926.387L412.243 948.166L463.876 873.572L515.511 798.981L504.303 782.269C498.141 773.08 490.828 760.042 488.055 753.298L483.012 741.037L468.596 741.359C460.667 741.537 424.103 744.389 387.342 747.697ZM851.011 757.4C846.498 766.412 838.839 779.352 833.992 786.159L825.178 798.538L876.889 873.253L928.598 947.967L948.346 927.711C988.946 886.07 1026.71 816.959 1038.55 762.642C1040.31 754.606 1039.99 754.121 1032.99 754.09C1028.92 754.069 990.784 751.128 948.256 747.55C905.729 743.972 868.297 741.039 865.073 741.032C860.505 741.021 857.409 744.622 851.011 757.4ZM504.636 892.929C474.724 936.075 450.249 972.374 450.249 973.593C450.249 977.113 516.434 1014.01 518.662 1011.73C520.995 1009.35 602.461 837.231 601.564 836.583C596.411 832.864 562.77 814.42 561.189 814.446C559.996 814.464 534.548 849.783 504.636 892.929ZM759.587 824.933C750.243 830.513 742.22 836.222 741.754 837.619C741.017 839.828 820.722 1012.77 823.977 1016.02C827.091 1019.13 893.213 981.653 893.213 976.773C893.213 972.595 782.996 815.741 779.715 815.253C777.988 814.994 768.929 819.35 759.587 824.933ZM1174.37 870.01C1170.78 871.74 1164.35 881.582 1157.78 895.388C1130.51 952.664 1097.89 1000.06 1055.98 1043.29C998.799 1102.28 929.314 1146.95 851.276 1174.9C835.198 1180.65 821.301 1187.38 817.857 1191.07C805.192 1204.63 815.089 1225.92 834.058 1225.92C852.175 1225.92 922.287 1196.49 967.356 1169.96C1019.93 1139.02 1077.67 1089.86 1117.69 1041.96C1143.29 1011.32 1172.33 966.309 1191.23 927.984C1210.01 889.904 1210.94 882.269 1198.02 872.105C1190.66 866.32 1183.36 865.672 1174.37 870.01ZM624.467 894.048C618.311 907.191 601.363 943.196 586.805 974.065C572.245 1004.93 560.335 1031.05 560.335 1032.1C560.335 1034.14 585.762 1040.59 611.134 1044.97C638.435 1049.69 681.35 1050.98 708.426 1047.89C742.029 1044.06 780.556 1035.06 780.341 1031.09C780.25 1029.4 763.38 992.643 742.857 949.395L705.538 870.763L670.599 870.459L635.66 870.154L624.467 894.048Z" fill="#F5EEEE"/>
</svg>
