<svg width="1257" height="1230" viewBox="0 0 1257 1230" fill="none" xmlns="http://www.w3.org/2000/svg">
<path fill-rule="evenodd" clip-rule="evenodd" d="M1046.35 0C1057.42 0 1064.07 1.476 1070.71 5.166C1075.88 8.118 1084 13.284 1088.67 16.728C1093.34 20.172 1109.34 34.932 1124.1 49.2C1138.61 63.468 1157.31 83.394 1165.68 93.48C1173.8 103.566 1187.08 121.77 1195.2 134.07C1203.07 146.124 1214.14 164.82 1219.31 175.398C1224.48 185.73 1232.1 202.458 1236.04 212.052C1239.98 221.892 1246.37 241.08 1250.06 254.61C1256.71 277.734 1257.2 281.916 1256.95 322.26C1256.95 345.876 1255.48 380.316 1253.75 398.52C1252.03 416.724 1248.59 447.72 1245.88 467.4C1243.18 487.08 1238.25 515.862 1235.06 531.36C1231.61 546.858 1224.48 575.64 1208.49 630.99L1207.01 729.39C1206.03 794.334 1204.55 829.512 1202.83 832.71C1201.35 835.416 1198.15 838.368 1195.94 839.352C1193.72 840.582 1189.54 841.32 1186.34 841.32C1183.39 841.32 1178.47 839.106 1169.86 831.48V738.492C1169.86 682.896 1170.84 639.846 1172.57 630.99C1174.04 622.872 1178.47 604.668 1182.65 590.4C1186.59 576.132 1192.74 552.27 1196.18 537.51C1199.38 522.504 1204.3 497.166 1206.76 480.93C1209.22 464.694 1210.7 450.918 1210.21 450.18C1209.96 449.442 1179.21 478.47 1075.14 580.068L1086.21 594.336C1092.11 602.454 1101.71 617.706 1107.37 628.53C1113.27 639.354 1120.16 656.574 1122.87 666.66C1128.03 684.618 1128.03 690.276 1128.03 920.778C1128.03 1050.17 1128.53 1157.92 1129.26 1159.89C1130.25 1162.6 1134.68 1163.58 1147.72 1163.58C1162.48 1163.58 1165.18 1162.84 1167.4 1158.66C1168.87 1155.46 1169.86 1102.57 1169.86 875.76L1176.5 870.84C1180.44 867.888 1185.36 865.674 1187.57 865.92C1190.03 865.92 1194.95 868.626 1205.53 877.728V1167.27L1198.64 1178.83C1193.97 1187.2 1189.05 1192.12 1181.42 1195.56C1173.55 1199.25 1165.92 1200.48 1148.21 1200.48C1130.74 1200.48 1123.36 1199.5 1116.23 1195.81C1111.3 1193.35 1105.15 1189.16 1102.94 1186.7C1100.73 1184 1097.04 1177.85 1095.07 1172.68C1091.62 1164.56 1091.13 1135.78 1091.13 926.682C1091.13 773.178 1090.15 686.094 1088.42 678.96C1087.19 672.81 1082.27 660.018 1077.6 650.67C1073.17 641.076 1065.3 628.038 1050.78 608.85L1040.94 620.166C1035.28 626.316 1020.77 644.52 1008.47 660.756C996.164 676.746 976.482 704.298 965.164 722.01C953.601 739.476 937.117 766.044 928.506 781.05C920.141 795.81 905.134 824.838 895.293 845.01C885.698 865.428 872.166 896.178 865.277 913.89C858.389 931.356 847.81 961.86 841.905 981.54C835.754 1001.22 827.881 1027.54 824.437 1040.09C820.993 1052.39 813.366 1071.82 807.953 1083.14C802.294 1094.21 791.469 1111.67 783.842 1121.51C776.216 1131.6 762.192 1146.36 752.843 1154.23C743.248 1162.1 724.55 1174.16 711.018 1180.8C696.011 1188.43 675.344 1196.05 658.123 1200.48C642.623 1204.66 614.822 1210.81 596.616 1214.01C578.41 1217.45 541.752 1222.37 515.427 1225.08C489.102 1227.79 453.92 1230 437.19 1230C420.706 1230 388.723 1228.28 365.842 1226.06C343.208 1224.1 309.256 1220.16 290.312 1217.45C271.368 1214.75 238.154 1208.84 216.504 1204.17C194.853 1199.5 161.64 1191.38 142.696 1185.97C116.863 1178.59 107.268 1174.9 103.823 1170.47C101.363 1167.27 99.395 1162.35 99.641 1159.4C99.641 1156.2 102.347 1151.03 105.792 1147.59C108.99 1144.15 113.665 1141.44 116.125 1141.44C118.585 1141.44 134.331 1145.38 151.307 1150.05C168.283 1154.97 199.774 1162.6 221.424 1167.27C243.075 1171.94 275.796 1177.85 294.002 1180.55C312.208 1183.26 342.224 1186.7 360.43 1188.43C380.604 1190.15 418.246 1190.89 456.38 1189.9C495.007 1189.16 530.435 1187.2 548.641 1184.49C564.878 1182.28 591.449 1177.85 607.687 1174.4C623.925 1171.21 646.559 1165.55 658.123 1162.1C669.686 1158.66 687.892 1151.03 698.471 1145.62C709.788 1139.47 725.288 1128.65 735.129 1119.3C744.724 1110.44 756.779 1096.67 762.192 1088.55C767.851 1080.43 774.74 1068.13 777.938 1061.49C780.89 1054.85 789.009 1029.76 795.652 1006.14C802.294 982.524 812.874 948.576 819.27 931.11C825.667 913.398 836 887.568 841.905 873.3C848.056 859.032 861.341 831.234 871.182 811.062C881.269 791.136 896.769 762.354 905.872 747.348C914.729 732.096 929.983 707.988 939.332 693.72C948.927 679.452 966.641 654.606 978.942 638.616C991.243 622.38 1013.14 595.812 1027.41 579.576C1041.92 563.094 1082.03 521.766 1116.72 487.572C1163.22 442.062 1182.9 420.66 1192 406.392C1198.89 396.06 1206.76 381.3 1209.47 373.92C1212.42 366.54 1216.36 352.518 1218.33 343.17C1220.79 331.608 1221.52 318.816 1220.79 303.81C1220.05 290.772 1216.6 272.568 1212.91 259.53C1209.47 247.23 1202.33 227.304 1196.92 215.25C1191.76 202.95 1183.39 185.73 1177.98 176.628C1172.81 167.28 1161.49 149.814 1152.64 137.268C1143.78 124.722 1123.61 101.106 1107.86 84.87C1089.16 65.928 1078.34 56.334 1076.86 57.81C1075.38 59.04 1064.81 76.752 1053 97.17C1041.19 117.342 1020.52 154.488 1007.24 179.58C994.196 204.672 973.529 245.508 961.966 270.6C950.157 295.692 931.213 337.758 919.649 364.08C908.086 390.402 882.007 452.886 861.833 503.07C841.413 553.008 815.334 617.214 803.279 645.75C791.469 674.04 774.247 713.4 765.144 733.08C756.041 752.76 741.28 782.034 732.423 798.27C723.566 814.506 710.526 837.138 703.638 848.7C696.503 860.262 683.955 878.466 676.083 889.29C667.964 900.114 652.71 917.334 641.885 927.42C631.306 937.506 615.314 950.79 606.457 956.448C597.6 962.352 582.592 970.716 573.243 975.39C563.648 979.818 549.133 985.968 540.522 988.674C532.157 991.626 517.149 995.562 507.308 997.53C497.713 999.744 479.015 1002.2 466.221 1002.94C452.69 1003.68 432.516 1003.19 418.246 1001.22C404.715 999.744 384.294 995.562 372.731 992.118C361.168 988.92 342.962 982.032 332.137 976.866C321.311 971.946 301.137 960.384 262.019 934.8L248.979 938.736C242.091 940.704 221.178 947.592 202.972 953.742C184.766 959.892 156.473 970.47 140.235 977.604C123.752 984.492 101.363 995.562 90.0459 1002.45C78.7287 1009.09 63.721 1020.16 56.8323 1027.05C49.6975 1033.69 42.0706 1043.78 39.6104 1049.19C36.658 1055.34 35.4279 1062.23 36.166 1067.64C36.9041 1072.31 39.6104 1080.68 42.0706 1086.09C44.5309 1091.5 52.8958 1102.08 60.5227 1109.46C68.1495 1116.84 75.0383 1125.45 76.0224 1128.4C76.7605 1131.6 76.0224 1136.77 74.3002 1140.21C72.824 1143.65 67.9035 1147.84 63.9671 1149.31C57.8164 1151.53 55.1101 1151.28 48.2213 1147.34C43.5468 1144.88 34.4438 1136.52 27.8011 1129.14C21.1583 1121.76 12.3014 1108.48 7.87287 1099.62C1.23014 1086.09 0 1081.17 0 1065.18C0 1049.68 1.23014 1044.27 7.13479 1031.97C11.3172 1023.85 20.6663 1011.06 28.0471 1003.43C35.6739 996.054 48.4673 985.23 56.5862 979.818C64.7051 974.406 82.4191 964.32 95.9506 957.432C109.482 950.79 131.625 940.704 145.156 935.292C158.688 929.88 187.473 919.794 209.123 912.66C230.773 905.772 253.408 899.376 259.559 898.638C265.709 897.9 283.423 899.13 298.923 901.344C314.423 903.558 341.486 906.018 359.2 907.002C383.31 907.986 396.842 907.248 414.556 904.296C427.349 902.082 445.063 896.916 453.92 892.98C467.206 886.83 473.11 881.91 488.61 864.198C498.943 852.144 517.641 828.774 530.188 811.8C542.49 794.826 567.585 758.91 585.545 731.85C603.259 704.79 633.028 658.296 651.234 628.53C669.44 598.764 697.733 551.778 713.971 523.98C730.209 496.182 758.502 447.474 776.708 415.74C794.914 384.006 827.635 326.442 849.286 287.82C870.936 249.198 912.761 174.414 942.284 121.77C971.561 68.88 998.624 22.632 1002.07 18.942C1005.76 15.006 1013.63 9.348 1019.78 6.15C1027.9 1.722 1035.04 0.246 1046.11 0L1046.35 0ZM1010.43 75.276C1003.05 88.56 970.577 147.108 938.101 205.41C905.626 263.466 850.516 360.882 815.826 421.89C780.89 482.652 735.621 560.88 714.709 595.32C694.043 629.76 665.503 676.254 651.48 698.64C637.456 721.026 614.084 756.45 599.814 777.36C585.545 798.27 565.616 826.56 555.529 840.09C545.196 853.62 528.466 874.53 518.379 886.584C507.554 899.13 493.53 912.414 484.919 918.072C476.801 923.238 461.793 930.372 451.706 933.57C441.619 936.522 422.675 940.458 409.881 941.934C397.088 943.41 379.374 944.886 370.517 945.378L354.525 945.87C368.795 952.512 382.08 956.694 393.151 959.4C404.469 962.106 424.643 965.058 438.174 966.042C453.182 966.78 470.896 966.288 483.689 964.566C495.253 962.844 513.459 958.662 524.284 955.218C535.109 951.774 552.823 944.394 563.648 938.736C574.473 933.078 589.973 923.484 598.092 917.334C606.211 910.938 619.496 898.884 627.615 890.274C635.734 881.664 650.742 861.738 661.075 846.24C671.408 830.742 685.432 807.864 692.074 795.81C698.963 783.51 710.526 761.37 717.907 746.61C725.534 731.604 739.558 701.346 749.399 678.96C759.24 656.574 788.517 585.726 814.596 521.52C840.675 457.314 868.722 389.172 876.841 370.23C884.96 351.288 899.967 317.34 910.3 294.462C920.634 271.83 939.086 233.208 951.387 208.362C963.688 183.762 981.648 149.076 991.243 131.61C1000.84 113.898 1016.83 86.1 1026.67 69.372C1036.51 52.89 1044.63 38.868 1044.63 38.13C1044.63 37.392 1042.91 36.9 1040.69 36.9C1038.48 36.9 1033.81 40.098 1030.36 43.788C1026.67 47.724 1017.81 61.992 1010.43 75.276Z" fill="#F5EEEE"/>
</svg>
