<svg width="3473" height="5591" viewBox="0 0 3473 5591" fill="none" xmlns="http://www.w3.org/2000/svg">
<path d="M3320.5 2282.91C3319.12 2319.21 3317.67 2356.89 3316.16 2395.94L3292.6 2959.01L3315.61 2408.82C3308.86 2580.46 3300.8 2773.87 3292.6 2959.01C3288.67 3048.41 3284.68 3135.81 3280.89 3217.92C3323.39 3218.95 3365.96 3219.09 3408.53 3218.88C3410.53 3173.77 3412.66 3126.03 3414.87 3075.27L3442.35 2408.82C3444 2365.43 3445.52 2323.35 3447.03 2282.09C3404.81 2282.5 3362.65 2282.64 3320.43 2282.91H3320.5Z" fill="#F5EEEE"/>
<path d="M3253.96 3726.5C3247.07 3802.89 3244.11 3811.7 3201.75 3881.75C3183.97 3911.16 3159.87 3956.27 3148.16 3981.97C3112.34 4060.69 3116.54 4024.74 3079.83 4563.49C3066.12 4764.61 3034.16 5204.11 3028.37 5271.75C3018.86 5381.75 2985.25 5434.37 2909.83 5457.37C2869.05 5469.77 1544.05 5468.95 1495.42 5456.48C1439.07 5442.02 1393.54 5392.22 1382.86 5333.33C1380.59 5320.93 1364.33 5080.27 1346.63 4798.57C1300 4055.04 1303.86 4102.78 1285.26 4047.26C1265.49 3988.37 1253.92 3965.02 1200.12 3875.34L1158.31 3805.71L1152.66 3711.07C1149.56 3659.07 1139.78 3429.51 1130.96 3200.9C1122.15 2972.37 1113.33 2747.69 1111.4 2701.62C1109.47 2655.54 1102.24 2440.99 1095.28 2224.85C1088.33 2008.72 1081.3 1812.28 1079.65 1788.38L1076.69 1744.92H3339.03L3335.1 1856.02C3332.96 1917.11 3329.73 2013.54 3327.94 2070.22C3327.66 2078.14 3327.38 2086.48 3327.11 2094.74C3369.26 2094.54 3411.42 2094.33 3453.58 2093.92C3462.32 1828.74 3467.77 1605.03 3470.86 1393.78C3475.55 1071.03 3476.03 1075.44 3432.43 1048.85C3412.45 1036.66 3396.27 1036.25 2901.15 1036.25H2390.46V596.054C2390.46 92.4275 2392.04 109.44 2339.63 57.0938C2286.1 3.57659 2209.65 -14.1247 2143.59 11.704C2096.54 30.0941 2071.33 52.8235 2049.5 96.5602L2029.59 136.302V1036.18H996.163L975.429 1050.37C939.611 1074.89 934.17 1091.07 934.101 1172.48C934.101 1212.71 936.994 1335.45 940.507 1445.3C944.02 1555.16 947.808 1671.84 948.841 1704.63L950.77 1764.2H734.62C450.829 1764.2 393.106 1773.3 277.316 1835.7C104.08 1929.23 0 2098.26 0 2286.08C0 2352.2 7.50807 2393.39 89.8902 2782.13C115.032 2900.81 153.054 3082.02 174.339 3184.79C247.56 3537.92 265.262 3616.51 278.832 3648.67C338.896 3790.83 449.864 3889.19 603.814 3936.78C643.559 3949.04 667.047 3950.49 867.63 3953.04L1087.84 3955.79L1103.82 3979.9C1136.34 4029.01 1165.68 4095.89 1172.22 4135.84C1181.11 4189.9 1212.52 4660.13 1243.86 5207.7C1252.19 5353.1 1257.57 5388.36 1278.44 5433.96C1310.68 5504.35 1369.5 5555.66 1444.72 5579.08C1481.02 5590.38 1520.42 5591 2196.35 5591C2975.13 5591 2950.47 5592.1 3015.28 5554.15C3081.13 5515.58 3131.07 5444.49 3144.5 5370.25C3147.88 5351.72 3160.76 5194.47 3173.16 5020.9C3195.41 4710.34 3213.59 4461.28 3231.43 4224.21C3241.77 4086.52 3249.07 4059.87 3298.45 3978.11C3345.91 3899.59 3368.44 3847.66 3375.81 3800.06C3380.01 3772.99 3385.93 3683.66 3394.13 3522.01C3351.42 3522.14 3308.72 3522.21 3266.01 3522.28C3260.71 3624.5 3256.44 3698.06 3253.82 3726.5H3253.96ZM2152.06 167.71L2171.9 151.042C2197.39 129.621 2217.84 129.897 2242.3 152.075L2261.86 169.776L2262.75 601.427L2263.65 1033.08L2207.86 1034.94L2152.06 1036.8V167.71ZM972.674 2373.97C976.118 2462.06 983.489 2658.77 988.999 2811.2C994.51 2963.55 1003.33 3196.08 1008.56 3327.98C1013.8 3459.81 1018 3570.7 1018 3574.42C1018 3578.83 966.544 3581.1 866.39 3581.1C699.077 3581.1 684.819 3578.49 646.039 3540.95C634.604 3529.86 622.275 3511.88 618.693 3501C615.111 3490.12 561.383 3226.87 499.39 2916.03C424.654 2541.75 386.562 2337.12 386.562 2310.12C386.562 2279.54 390.558 2261.29 402.681 2236.97C423.552 2195.1 440.979 2179.32 487.267 2160.25C524.67 2144.89 527.425 2144.68 745.779 2144.54L966.475 2144.4V2179.12C966.475 2198.2 969.299 2285.88 972.743 2373.97H972.674ZM846.483 3817.97C676.484 3815.7 656.646 3814.25 617.935 3801.44C540.65 3775.82 471.631 3722.3 426.996 3653.22C390.833 3597.22 393.037 3605.76 306.04 3186.3C246.871 2900.81 205.749 2706.3 166.211 2524.47C135.421 2382.79 131.908 2359.02 132.39 2292.56C132.941 2209.91 145.409 2165.27 187.426 2095.36C236.47 2013.68 350.262 1935.5 448.349 1916.01C480.448 1909.6 556.148 1907.05 722.428 1906.57C983.695 1905.88 959.931 1899.75 959.931 1967.67V2008.99H755.353C542.303 2009.06 497.324 2012.71 437.741 2034.89C367.138 2061.2 297.43 2129.87 270.084 2200.06C258.167 2230.57 255.481 2249.92 255.688 2302.13C255.963 2359.44 269.12 2431.62 375.128 2956.8C462.401 3389.28 498.357 3555.27 509.653 3577.8C543.13 3644.81 606.845 3693.51 681.65 3709.15C701.144 3713.21 782.011 3716.31 870.11 3716.31H1024.47V3743.72C1024.61 3758.81 1026.47 3782.22 1028.67 3795.79L1032.74 3820.45L846.552 3817.9L846.483 3817.97ZM1062.98 1266.57C1062.98 1230.27 1061.19 1194.18 1059.12 1186.4C1055.68 1173.45 1057.95 1172.14 1086.6 1170.28C1121.94 1168.01 3346.05 1170.97 3347.7 1173.24C3348.26 1174.07 3347.36 1210.23 3345.71 1253.62L3342.68 1332.55H1063.05V1266.5L1062.98 1266.57ZM1067.52 1467.9H3345.36L3340.82 1537.19C3338.34 1575.27 3335.03 1608.61 3333.45 1611.23C3329.31 1618.19 1083.09 1616.05 1078.75 1609.02C1076.82 1605.86 1073.45 1572.8 1071.38 1535.6L1067.52 1467.9Z" fill="#F5EEEE"/>
</svg>
