<svg width="764" height="1230" viewBox="0 0 764 1230" fill="none" xmlns="http://www.w3.org/2000/svg">
<path fill-rule="evenodd" clip-rule="evenodd" d="M471.564 2.57268C461.216 6.61483 455.669 11.6165 450.858 21.2443L446.485 29.9933V128.979V227.964H332.814H219.143L214.582 231.088C206.707 236.483 205.5 240.049 205.497 257.946C205.494 266.79 206.131 293.798 206.911 317.963C207.689 342.128 208.518 367.8 208.751 375.009L209.174 388.12L161.621 388.125C99.1906 388.132 86.4879 390.118 61.0243 403.847C22.8949 424.405 -0.0113362 461.596 4.20885e-06 502.921C0.00567443 517.471 1.64438 526.525 19.7678 612.054C25.3005 638.168 33.6613 678.029 38.3477 700.635C54.4526 778.319 58.348 795.611 61.3348 802.682C74.5493 833.962 98.9511 855.597 132.828 866.069C141.564 868.769 146.74 869.088 190.865 869.645L239.312 870.256L242.822 875.559C249.969 886.358 256.429 901.082 257.87 909.862C259.824 921.761 266.736 1025.21 273.626 1145.67C275.457 1177.66 276.642 1185.41 281.236 1195.45C288.324 1210.93 301.272 1222.23 317.82 1227.38C325.802 1229.86 334.475 1230 483.17 1230C654.48 1230 649.066 1230.24 663.324 1221.89C677.808 1213.41 688.8 1197.76 691.749 1181.43C692.484 1177.35 695.324 1142.76 698.057 1104.57C702.946 1036.25 706.955 981.452 710.88 929.305C713.159 899.01 714.753 893.155 725.622 875.164C736.056 857.893 741.021 846.461 742.638 835.988C744.198 825.872 746.858 776.48 751.225 676.541C758.664 506.285 762.173 400.871 763.538 306.624C764.567 235.619 764.675 236.585 755.088 230.742C750.688 228.059 747.13 227.974 638.209 227.97L525.868 227.964V131.136C525.868 20.3386 526.221 24.0902 514.692 12.5618C502.916 0.788283 486.101 -3.10647 471.564 2.57268ZM477.78 33.2106L473.418 36.88V132.477V228.075L485.694 227.665L497.97 227.255L497.768 132.296L497.565 37.3364L493.265 33.4388C487.891 28.5661 483.379 28.4995 477.78 33.2106ZM239.024 257.457C232.723 257.858 232.217 258.154 232.98 261C233.437 262.708 233.822 270.643 233.831 278.633L233.851 293.16H484.584H735.316L735.985 275.798C736.352 266.248 736.549 258.289 736.423 258.109C736.067 257.603 246.803 256.961 239.024 257.457ZM235.686 337.812C236.149 346.001 236.882 353.274 237.313 353.971C238.263 355.507 732.389 355.986 733.296 354.451C733.64 353.87 734.37 346.54 734.92 338.16L735.92 322.923H485.381H234.842L235.686 337.812ZM237.51 393.434C237.873 398.696 239.422 441.906 240.955 489.457C242.487 537.008 244.085 584.204 244.506 594.338C244.925 604.471 246.863 653.9 248.809 704.179C250.756 754.458 252.906 804.962 253.586 816.409L254.825 837.226L264.015 852.551C275.851 872.287 278.392 877.419 282.743 890.376C286.842 902.587 285.985 892.087 296.246 1055.66C300.133 1117.63 303.718 1170.57 304.213 1173.3C306.559 1186.26 316.576 1197.22 328.975 1200.4C339.665 1203.14 631.147 1203.32 640.117 1200.59C656.707 1195.54 664.102 1183.96 666.189 1159.76C667.472 1144.87 674.5 1048.19 677.513 1003.94C685.589 885.411 684.659 893.33 692.541 876.007C695.118 870.344 700.423 860.42 704.329 853.953C713.644 838.535 714.293 836.605 715.812 819.794C718.392 791.224 728.938 555.158 732.089 455.442C732.484 442.969 733.194 421.764 733.667 408.316L734.529 383.868H485.69H236.851L237.51 393.434ZM98.6363 421.506C77.0569 425.792 52.0342 442.993 41.2381 460.962C31.9971 476.343 29.2598 486.155 29.1379 504.339C29.0401 518.971 29.8013 524.189 36.5786 555.362C45.2767 595.367 54.3165 638.162 67.3353 700.964C86.4666 793.244 85.9776 791.356 93.9386 803.677C103.748 818.863 118.932 830.649 135.938 836.28C144.445 839.098 148.815 839.414 186.213 839.918L227.172 840.471L226.274 835.041C225.781 832.054 225.37 826.899 225.362 823.587L225.346 817.563H191.394C172.003 817.563 154.222 816.89 149.931 815.991C133.483 812.552 119.463 801.845 112.099 787.101C109.622 782.145 101.714 745.625 82.5131 650.487C59.1957 534.954 56.2996 519.074 56.2401 506.465C56.1862 494.977 56.7859 490.723 59.4027 484.009C65.4188 468.574 80.7638 453.462 96.2903 447.68C109.397 442.801 119.296 441.994 166.163 441.986L211.17 441.977V432.881C211.17 417.937 216.396 419.282 158.924 419.434C122.352 419.53 105.701 420.102 98.6363 421.506ZM107.167 475.227C96.9792 479.415 93.1518 482.885 88.559 492.102C85.894 497.449 85.008 501.464 85.008 508.198C85.008 514.139 93.39 559.167 109.824 641.501C123.472 709.883 135.286 767.79 136.075 770.186C136.865 772.581 139.573 776.534 142.092 778.971C150.621 787.226 153.771 787.8 190.57 787.8C212.613 787.8 223.928 787.302 223.928 786.333C223.928 785.526 222.99 761.13 221.845 732.121C220.698 703.112 218.766 651.951 217.549 618.432C216.335 584.912 214.72 541.631 213.963 522.249C213.207 502.869 212.588 483.575 212.588 479.376V471.741L164.037 471.775C116 471.807 115.398 471.844 107.167 475.227Z" fill="#F5EEEE"/>
</svg>
